<svg xmlns="http://www.w3.org/2000/svg" xmlns:xlink="http://www.w3.org/1999/xlink" width="9" height="10" viewBox="0 0 9 10"><defs><path id="vyl8a" d="M1129 170.06a5.95 5.95 0 0 1 5.93 5.94h-1.73a4.2 4.2 0 0 0-4.2-4.22zm0-3.06a9 9 0 0 1 9 9h-1.74a7.28 7.28 0 0 0-7.26-7.27zm2.4 7.8a1.2 1.2 0 1 1-2.4 0 1.2 1.2 0 0 1 2.4 0z"/><mask id="vyl8c" width="2" height="2" x="-1" y="-1"><path fill="#fff" d="M1129 167h9v9h-9z"/><use xlink:href="#vyl8a"/></mask><filter id="vyl8b" width="29" height="30" x="1119" y="157" filterUnits="userSpaceOnUse"><feOffset dy="1" in="SourceGraphic" result="FeOffset1065Out"/><feGaussianBlur in="FeOffset1065Out" result="FeGaussianBlur1066Out" stdDeviation="0 0"/></filter></defs><g><g transform="translate(-1129 -167)"><g filter="url(#vyl8b)"><use fill="none" stroke-width="0" mask="url(&quot;#vyl8c&quot;)" xlink:href="#vyl8a"/><use fill="#fff" xlink:href="#vyl8a"/></g><use fill="#fff" xlink:href="#vyl8a"/><use fill="#8f8f8f" xlink:href="#vyl8a"/></g></g></svg>