<svg xmlns="http://www.w3.org/2000/svg" xmlns:xlink="http://www.w3.org/1999/xlink" width="13" height="10" viewBox="0 0 13 10"><defs><path id="dmvna" d="M952 171.15c-.46.08-1.12 0-1.47-.15.73-.06 1.22-.4 1.41-.85-.26.17-1.08.34-1.53.17l-.07-.3c-.35-1.26-1.52-2.29-2.76-2.16l.3-.12c.14-.05.94-.18.81-.46-.1-.25-1.08.19-1.26.25.24-.1.64-.25.68-.53-.37.05-.73.23-1.01.48a.7.7 0 0 0 .2-.39c-1 .64-1.58 1.92-2.04 3.16-.37-.36-.7-.64-.99-.8-.82-.44-1.8-.9-3.33-1.47-.05.51.25 1.2 1.1 1.64-.18-.02-.52.03-.8.1.12.59.48 1.07 1.46 1.3-.45.03-.68.13-.89.35.2.41.7.9 1.6.8-1 .42-.4 1.23.4 1.1a3.44 3.44 0 0 1-4.81.14c3.27 4.48 10.39 2.65 11.45-1.67.8 0 1.26-.28 1.55-.59z"/><mask id="dmvnc" width="2" height="2" x="-1" y="-1"><path fill="#fff" d="M939 167h13v9h-13z"/><use xlink:href="#dmvna"/></mask><filter id="dmvnb" width="33" height="30" x="929" y="157" filterUnits="userSpaceOnUse"><feOffset dy="1" in="SourceGraphic" result="FeOffset1023Out"/><feGaussianBlur in="FeOffset1023Out" result="FeGaussianBlur1024Out" stdDeviation="0 0"/></filter></defs><g><g transform="translate(-939 -167)"><g filter="url(#dmvnb)"><use fill="none" stroke-width="0" mask="url(&quot;#dmvnc&quot;)" xlink:href="#dmvna"/><use fill="#fff" xlink:href="#dmvna"/></g><use fill="#fff" xlink:href="#dmvna"/><use fill="#8f8f8f" xlink:href="#dmvna"/></g></g></svg>